<?xml version="1.0" encoding="iso-8859-1"?>
<!-- Generator: Adobe Illustrator 16.0.0, SVG Export Plug-In . SVG Version: 6.00 Build 0)  -->
<!DOCTYPE svg PUBLIC "-//W3C//DTD SVG 1.1//EN" "http://www.w3.org/Graphics/SVG/1.1/DTD/svg11.dtd">
<svg version="1.1" id="Capa_1" xmlns="http://www.w3.org/2000/svg" xmlns:xlink="http://www.w3.org/1999/xlink" x="0px" y="0px"
	 width="286.945px" height="286.945px" viewBox="0 0 286.945 286.945" style="enable-background:new 0 0 286.945 286.945;"
	 xml:space="preserve">
<g>
	<g>
		<path d="M61.195,48.42h161.571l36.617,39.518c-0.391-0.012-0.769-0.06-1.153-0.06h-73.769v18.435
			c0,20.93-21.978,22.56-28.709,22.56h-24.565c-6.731,0-28.709-1.63-28.709-22.56V87.877H28.709c-0.769,0-1.519,0.072-2.276,0.108
			L61.195,48.42z"/>
		<path d="M286.945,209.805c0,15.841-12.88,28.721-28.708,28.721H28.709C12.877,238.525,0,225.646,0,209.805v-80.927
			c0-15.828,12.883-28.703,28.709-28.703H90.18v6.137c0,21.17,16.099,34.857,41.007,34.857h24.565
			c24.914,0,41.007-13.688,41.007-34.857v-6.137h61.471c7.915,0,15.091,3.215,20.29,8.41l0.007,0.006
			c5.2,5.203,8.412,12.379,8.412,20.287v80.927H286.945z"/>
	</g>
</g>
<g>
</g>
<g>
</g>
<g>
</g>
<g>
</g>
<g>
</g>
<g>
</g>
<g>
</g>
<g>
</g>
<g>
</g>
<g>
</g>
<g>
</g>
<g>
</g>
<g>
</g>
<g>
</g>
<g>
</g>
</svg>
